<svg width="960" height="540" viewBox="0 0 960 540" xmlns="http://www.w3.org/2000/svg">
  <defs>
    <linearGradient id="grad" x1="0%" y1="0%" x2="100%" y2="100%">
      <stop offset="0%" stop-color="#4f46e5" stop-opacity="0.15" />
      <stop offset="100%" stop-color="#0ea5e9" stop-opacity="0.25" />
    </linearGradient>
  </defs>
  <rect width="960" height="540" rx="32" fill="url(#grad)" />
  <rect x="40" y="60" width="180" height="420" rx="20" fill="#ffffff" opacity="0.9" />
  <rect x="240" y="60" width="660" height="120" rx="24" fill="#ffffff" opacity="0.9" />
  <rect x="240" y="200" width="320" height="280" rx="24" fill="#ffffff" opacity="0.9" />
  <rect x="580" y="200" width="320" height="180" rx="24" fill="#ffffff" opacity="0.9" />
  <rect x="580" y="400" width="320" height="80" rx="20" fill="#ffffff" opacity="0.9" />
  <rect x="70" y="110" width="120" height="22" rx="8" fill="#e0e7ff" />
  <rect x="70" y="150" width="120" height="22" rx="8" fill="#e0e7ff" />
  <rect x="70" y="190" width="120" height="22" rx="8" fill="#e0e7ff" />
  <text x="70" y="95" font-family="Inter, sans-serif" font-size="14" fill="#1e1b4b">导航 / Navigation</text>
  <text x="260" y="105" font-family="Inter, sans-serif" font-size="24" fill="#0f172a">Xin Operator Console</text>
  <text x="260" y="230" font-family="Inter, sans-serif" font-size="18" fill="#0f172a">Tenant Management</text>
  <text x="600" y="230" font-family="Inter, sans-serif" font-size="18" fill="#0f172a">Policy Editor</text>
  <text x="600" y="430" font-family="Inter, sans-serif" font-size="18" fill="#0f172a">Observability</text>
  <text x="260" y="130" font-family="Vazirmatn, sans-serif" font-size="14" fill="#0f172a">کنترل کامل عملیات به دو زبان</text>
</svg>
